<svg xmlns="http://www.w3.org/2000/svg" viewBox="0 0 223.96 55.87"><defs><style>.cls-1{fill:#405866;}.cls-2{fill:#bdd4df;}.cls-3{fill:#081d25;}.cls-4{fill:#c7c6c5;}</style></defs><g id="Layer_2"><g id="Layer_1-2"><rect class="cls-1" width="55.87" height="55.87" rx="2.01"/><path class="cls-2" d="M5,7H39a9.89,9.89,0,0,1,7,16.89,9.76,9.76,0,0,1-6.34,2.87l6.57,7v4.29L33.05,23.86H39A7,7,0,0,0,39,9.91H7.67Z"/><polygon class="cls-2" points="14.49 13.88 46.31 46.98 46.31 51.29 10.58 13.88 14.49 13.88"/><path class="cls-3" d="M68.38,10.39v6.7h6A3.26,3.26,0,0,0,78,13.74a3.29,3.29,0,0,0-3.59-3.35ZM83,27.64h-4.7l-6.09-7h-3.8v7H64.43V6.69l10,0c4.93,0,7.53,3.32,7.53,6.93,0,2.87-1.31,5.77-5.29,6.58L83,27.37Z"/><polygon class="cls-3" points="108.2 27.64 92.53 27.64 92.53 6.72 108.2 6.72 108.2 10.54 96.45 10.54 96.45 15.36 107.78 15.36 107.78 19.03 96.45 19.03 96.45 23.76 108.2 23.76 108.2 27.64"/><path class="cls-3" d="M122.9,23.85h4.31c4.75,0,6.63-3.47,6.54-6.88-.09-3.26-2-6.52-6.54-6.52H122.9ZM137.67,17c.09,5.29-3.14,10.64-10.46,10.64H119V6.72h8.22c7.17,0,10.37,5.11,10.46,10.28"/><path class="cls-3" d="M166.72,25a11,11,0,0,1-7.95,3.11c-7.77,0-11.06-5.35-11.09-10.79s3.53-11,11.09-11a10.84,10.84,0,0,1,7.69,3.2L163.83,12a7.18,7.18,0,0,0-5.06-2c-5.05,0-7.23,3.76-7.2,7.26s2,7.08,7.2,7.08A7.66,7.66,0,0,0,164,22.29Z"/><path class="cls-3" d="M185.41,11.11,181.52,20h7.77Zm5.47,12.59H179.94l-1.8,3.94h-4.27l9.38-20.92h4.31L197,27.64h-4.31Z"/><path class="cls-3" d="M210.37,17.87h5.92c5.05,0,5-7.42,0-7.42h-5.92Zm5.92,3.61h-5.92v6.16h-4V6.72l9.87,0c10.22,0,10.25,14.79,0,14.79"/><rect class="cls-3" x="64.83" y="31.71" width="158.9" height="0.24"/><path class="cls-4" d="M79.61,39.25l-1.21.93a6.63,6.63,0,0,0-2.41-2,7,7,0,0,0-3.08-.67,6.79,6.79,0,0,0-3.4.88,6.36,6.36,0,0,0-2.43,2.37,6.6,6.6,0,0,0-.86,3.35,6.25,6.25,0,0,0,1.93,4.68A6.67,6.67,0,0,0,73,50.69a6.85,6.85,0,0,0,5.4-2.52l1.21.91a7.63,7.63,0,0,1-2.86,2.26,8.92,8.92,0,0,1-3.84.8,8,8,0,0,1-6.36-2.68,8.09,8.09,0,0,1-2-5.47A7.58,7.58,0,0,1,67,38.32,8.11,8.11,0,0,1,72.89,36a8.64,8.64,0,0,1,3.88.85,7.47,7.47,0,0,1,2.84,2.38"/><polygon class="cls-4" points="104.07 36.4 105.6 36.4 105.6 50.27 111.51 50.27 111.51 51.76 104.07 51.76 104.07 36.4"/><path class="cls-4" d="M142.7,37.51a6.59,6.59,0,0,0-5.62,3.28,6.65,6.65,0,0,0-.85,3.35,6.45,6.45,0,0,0,6.47,6.51,6.58,6.58,0,0,0,3.31-.87,6.2,6.2,0,0,0,2.37-2.37,6.64,6.64,0,0,0,.85-3.34,6.5,6.5,0,0,0-.85-3.31A6.4,6.4,0,0,0,146,38.4a6.52,6.52,0,0,0-3.28-.89M142.63,36a8,8,0,0,1,5.84,2.32,8.15,8.15,0,0,1,0,11.45,7.76,7.76,0,0,1-5.72,2.35A7.84,7.84,0,0,1,137,49.8a7.65,7.65,0,0,1-2.35-5.65,8.2,8.2,0,0,1,1.07-4.1,7.91,7.91,0,0,1,6.92-4"/><path class="cls-4" d="M175.32,36.4h1.54v9.27a20.08,20.08,0,0,0,.06,2.06,3.6,3.6,0,0,0,.53,1.52,3.25,3.25,0,0,0,1.29,1,4.1,4.1,0,0,0,1.74.41,3.49,3.49,0,0,0,1.46-.32,3.28,3.28,0,0,0,1.17-.9,3.78,3.78,0,0,0,.69-1.39,11.73,11.73,0,0,0,.16-2.4V36.4h1.53v9.27a11.29,11.29,0,0,1-.4,3.33,4.48,4.48,0,0,1-1.61,2.2,4.56,4.56,0,0,1-2.92.94,5.6,5.6,0,0,1-3.18-.88,4.33,4.33,0,0,1-1.77-2.35,12.29,12.29,0,0,1-.29-3.24Z"/><path class="cls-4" d="M212.12,50.31h1.77a16.73,16.73,0,0,0,4.42-.4,5.11,5.11,0,0,0,2.72-2,6.25,6.25,0,0,0,1-3.58A6.63,6.63,0,0,0,221,40.5a5.44,5.44,0,0,0-3-2.16,18.27,18.27,0,0,0-4.75-.43h-1.08Zm-1.47,1.45V36.4h3.18a16.17,16.17,0,0,1,5,.56,6.65,6.65,0,0,1,3.49,2.71,8.23,8.23,0,0,1,1.26,4.6,8,8,0,0,1-1,4.06A6.39,6.39,0,0,1,220,50.92a9.7,9.7,0,0,1-4.46.84Z"/></g></g></svg>
